<?xml version="1.0" standalone="no"?>
<!DOCTYPE svg PUBLIC "-//W3C//DTD SVG 20010904//EN"
 "http://www.w3.org/TR/2001/REC-SVG-20010904/DTD/svg10.dtd">
<svg version="1.0" xmlns="http://www.w3.org/2000/svg"
 width="533.000000pt" height="533.000000pt" viewBox="0 0 533.000000 533.000000"
 preserveAspectRatio="xMidYMid meet">
<metadata>
Created by potrace 1.11, written by Peter Selinger 2001-2013
</metadata>
<g transform="translate(0.000000,533.000000) scale(0.100000,-0.100000)"
fill="#000000" stroke="none">
<path d="M2638 4973 c-10 -2 -18 -9 -18 -14 0 -5 -7 -9 -15 -9 -8 0 -15 -5
-15 -11 0 -5 -4 -8 -9 -5 -4 3 -16 -3 -26 -14 -10 -11 -21 -17 -25 -15 -4 3
-11 -2 -14 -11 -3 -9 -13 -14 -20 -11 -8 3 -17 -1 -20 -9 -3 -9 -10 -12 -16
-9 -5 3 -10 2 -10 -4 0 -5 -16 -15 -35 -22 -19 -7 -35 -17 -35 -23 0 -5 -3 -6
-7 -3 -3 4 -17 0 -30 -8 -13 -9 -23 -13 -23 -9 0 4 -6 2 -13 -4 -7 -6 -24 -13
-39 -16 -14 -2 -37 -10 -50 -17 -12 -7 -23 -11 -23 -10 0 1 -13 -3 -30 -9 -16
-7 -41 -14 -54 -16 -14 -3 -29 -8 -35 -11 -5 -4 -22 -8 -36 -10 -32 -4 -65
-11 -65 -14 0 -1 -34 -8 -62 -11 -7 -1 -13 -6 -13 -12 0 -7 -3 -7 -8 -1 -9 13
-32 18 -32 7 0 -18 -275 -16 -375 3 -16 3 -39 6 -50 6 -10 0 -25 5 -32 11 -7
6 -13 8 -13 5 0 -4 -36 3 -95 19 -11 3 -26 6 -32 6 -7 1 -13 6 -13 11 0 6 -3
8 -6 5 -12 -13 -303 113 -312 135 -2 4 -10 7 -18 7 -8 0 -14 5 -14 10 0 6 -7
10 -15 10 -8 0 -15 5 -15 10 0 6 -7 10 -15 10 -8 0 -15 5 -15 11 0 6 -7 9 -15
5 -8 -3 -15 -1 -15 4 0 6 -10 5 -24 -1 -13 -6 -23 -18 -21 -28 1 -9 0 -20 -4
-26 -3 -5 -7 -57 -8 -115 -1 -58 -3 -105 -4 -105 0 0 -2 -37 -3 -82 -1 -46 -5
-86 -9 -89 -3 -4 -2 -14 3 -24 5 -10 7 -20 4 -22 -4 -5 -7 -48 -19 -311 -2
-43 -5 -81 -8 -84 -3 -3 -2 -16 3 -29 5 -13 6 -24 2 -24 -4 0 -8 -21 -9 -47
-1 -68 -12 -318 -13 -318 -4 0 -13 -281 -13 -390 0 -168 4 -237 15 -252 5 -7
5 -14 -2 -18 -6 -3 -7 -11 -4 -17 4 -6 9 -34 11 -62 4 -49 10 -91 13 -91 1 0
3 -15 6 -32 2 -18 6 -45 8 -60 2 -16 6 -35 10 -44 4 -9 6 -20 5 -25 -1 -5 0
-11 1 -14 3 -10 10 -35 16 -65 3 -16 8 -37 11 -45 4 -8 8 -28 10 -45 3 -16 9
-33 15 -36 6 -4 8 -11 5 -16 -3 -5 1 -22 8 -37 8 -16 12 -32 9 -37 -3 -5 0 -9
7 -9 7 0 10 -3 6 -6 -3 -4 0 -19 9 -35 8 -16 12 -29 8 -29 -4 0 -1 -7 6 -15 6
-8 9 -18 6 -23 -3 -6 1 -15 9 -22 8 -7 13 -16 10 -20 -3 -5 2 -16 11 -24 8 -9
12 -16 8 -16 -3 0 -1 -6 5 -13 6 -8 8 -17 4 -21 -4 -4 -3 -10 3 -14 14 -9 54
-91 54 -109 0 -8 5 -11 10 -8 6 3 10 -3 10 -14 0 -12 5 -21 11 -21 5 0 8 -4 5
-8 -3 -5 3 -18 14 -29 10 -12 16 -24 12 -27 -3 -4 0 -11 8 -16 7 -5 15 -16 16
-26 2 -9 9 -21 16 -25 7 -5 13 -12 14 -16 1 -17 28 -63 36 -63 5 0 7 -4 4 -9
-4 -5 -3 -11 1 -13 5 -1 21 -23 38 -48 16 -25 33 -47 36 -50 3 -3 12 -16 19
-30 7 -14 21 -31 32 -38 10 -7 18 -17 18 -23 0 -5 8 -18 18 -28 9 -11 40 -45
67 -77 28 -31 67 -73 87 -94 20 -21 34 -40 31 -44 -4 -3 -2 -6 4 -6 5 0 38
-27 73 -60 35 -33 67 -60 72 -60 5 0 6 -4 3 -10 -3 -5 0 -10 7 -10 8 0 20 -9
28 -19 7 -11 17 -18 22 -15 4 3 8 -2 8 -10 0 -9 7 -16 15 -16 7 0 19 -8 24
-17 6 -10 11 -15 11 -10 0 6 37 -23 76 -61 7 -6 17 -12 22 -12 6 0 12 -7 16
-15 3 -8 10 -15 16 -15 5 0 21 -10 36 -23 14 -12 27 -20 28 -17 1 3 14 -7 28
-23 14 -15 30 -27 36 -27 6 0 18 -10 27 -22 8 -13 18 -21 21 -19 3 1 17 -6 30
-18 13 -12 27 -21 30 -21 3 0 11 -6 18 -12 14 -14 37 -31 108 -82 26 -18 45
-36 43 -40 -3 -3 -2 -4 2 -1 3 3 15 -2 25 -12 10 -9 18 -13 18 -8 0 4 9 -3 20
-16 10 -13 19 -21 20 -16 0 4 14 -6 31 -23 18 -16 36 -30 41 -30 5 0 15 -6 23
-13 29 -28 56 -47 65 -47 5 0 21 -11 36 -25 15 -14 32 -25 38 -25 6 0 19 -9
29 -21 18 -21 54 -19 69 5 4 6 11 11 15 11 8 0 26 13 64 48 10 9 19 14 19 10
0 -5 7 1 16 12 8 11 17 19 20 17 5 -3 77 50 82 61 2 4 10 7 18 7 8 0 17 7 20
15 4 8 12 15 20 15 8 0 14 5 14 10 0 6 6 10 14 10 8 0 17 7 20 16 4 9 9 14 13
10 3 -3 12 3 20 14 8 11 19 20 24 20 5 0 15 5 22 10 45 38 65 53 94 71 18 11
33 26 33 31 0 6 3 9 6 5 4 -3 12 -1 19 6 7 7 25 21 41 32 15 11 42 31 59 45
18 14 43 32 55 40 12 8 32 24 45 36 12 12 39 31 59 43 20 13 36 27 36 32 0 5
6 8 13 6 6 -1 11 4 10 10 -2 7 6 13 18 13 11 0 18 4 15 9 -3 5 9 16 27 25 17
8 28 16 24 16 -4 0 9 15 30 32 21 18 80 74 132 125 51 51 98 93 103 93 5 0 7
4 3 9 -3 5 7 19 21 30 15 12 23 21 19 21 -5 0 1 8 11 17 11 10 33 36 50 58 44
60 48 65 67 86 9 10 17 24 17 29 0 6 5 10 11 10 5 0 7 5 4 10 -3 6 1 13 9 16
9 3 16 10 16 16 0 5 10 24 23 41 13 18 32 49 42 70 11 20 23 37 26 37 4 0 10
13 14 29 3 16 13 32 21 35 9 3 13 10 10 15 -4 5 0 15 7 23 7 7 21 31 31 53 11
22 37 78 60 125 22 47 40 87 41 90 0 3 4 11 8 17 5 7 5 17 2 23 -3 6 -2 10 3
10 9 0 21 30 21 53 0 4 8 21 16 37 8 16 15 32 15 35 0 5 1 8 5 23 1 4 5 24 9
45 5 20 11 37 15 37 3 0 7 10 8 23 4 52 8 77 14 77 5 0 18 57 23 102 1 3 4 9
8 13 4 4 4 13 1 21 -3 8 -1 14 3 14 5 0 9 12 10 28 0 15 4 43 8 62 5 19 10 51
12 70 12 118 16 173 17 235 1 39 6 73 12 77 7 5 7 8 0 8 -7 0 -11 26 -10 65 0
36 -2 95 -5 130 -3 41 -2 65 5 65 6 0 6 3 -1 8 -6 4 -11 33 -10 65 1 32 -2 65
-5 75 -4 9 -3 27 2 40 5 12 5 22 1 22 -4 0 -8 35 -10 78 -7 202 -11 262 -17
272 -3 5 -1 10 6 10 7 0 8 5 3 13 -5 6 -9 69 -9 139 0 71 -3 128 -7 128 -3 0
-4 9 -1 20 3 13 0 20 -8 20 -10 0 -10 3 -3 8 13 8 13 74 0 84 -6 4 -6 12 1 20
6 7 7 22 3 33 -4 11 -3 28 2 38 5 9 5 17 1 17 -7 0 -11 65 -16 290 -2 71 -17
100 -54 100 -12 0 -27 -8 -32 -17 -6 -10 -11 -14 -11 -10 0 4 -20 -6 -46 -23
-49 -35 -196 -110 -222 -115 -9 -2 -19 -4 -22 -5 -3 -1 -8 -2 -12 -1 -5 0 -8
-4 -8 -10 0 -6 -7 -9 -15 -6 -8 4 -17 2 -20 -3 -5 -7 -82 -33 -137 -46 -10 -2
-28 -7 -40 -10 -92 -24 -165 -33 -284 -38 -45 -2 -86 -6 -92 -10 -6 -3 -13 -2
-16 2 -3 5 -31 10 -62 11 -31 1 -60 3 -63 5 -4 3 -27 7 -51 11 -25 3 -56 10
-70 14 -14 5 -61 19 -105 32 -44 13 -83 27 -86 32 -4 5 -11 7 -17 3 -6 -3 -13
-2 -16 3 -3 5 -18 12 -33 16 -16 3 -49 17 -75 30 -27 13 -48 21 -48 17 0 -4
-4 -2 -8 3 -4 6 -25 19 -47 31 -78 41 -120 66 -127 78 -4 6 -8 7 -8 3 0 -5 -7
-2 -15 5 -28 25 -44 38 -47 37 -2 -1 -11 -3 -20 -6z"/>
</g>
</svg>
